<svg width="1718" height="870" viewBox="0 0 1718 870" fill="none" xmlns="http://www.w3.org/2000/svg">
<rect width="59" height="26" fill="#FBFAE8"/>
<rect x="45" y="13" width="67" height="27" fill="#FBFAE8"/>
<rect x="100" y="26" width="68" height="28" fill="#FBFAE8"/>
<rect x="159" y="40" width="80" height="28" fill="#FBFAE8"/>
<rect x="230" y="54" width="52" height="26" fill="#FBFAE8"/>
<rect x="272" y="68" width="80" height="27" fill="#FBFAE8"/>
<rect x="342" y="81" width="50" height="28" fill="#FBFAE8"/>
<rect x="386" y="95" width="48" height="27" fill="#FBFAE8"/>
<rect x="428" y="109" width="50" height="26" fill="#FBFAE8"/>
<rect x="472" y="128" width="63" height="23" fill="#FBFAE8"/>
<rect x="528" y="142" width="49" height="22" fill="#FBFAE8"/>
<rect x="573" y="158" width="59" height="18" fill="#FBFAE8"/>
<rect x="626" y="172" width="33" height="20" fill="#FBFAE8"/>
<rect x="654" y="187" width="34" height="19" fill="#FBFAE8"/>
<rect x="683" y="196" width="47" height="25" fill="#FBFAE8"/>
<rect x="725" y="213" width="64" height="23" fill="#FBFAE8"/>
<rect x="782" y="230" width="34" height="21" fill="#FBFAE8"/>
<rect x="812" y="242" width="32" height="23" fill="#FBFAE8"/>
<rect x="836" y="257" width="37" height="20" fill="#FBFAE8"/>
<rect x="864" y="271" width="65" height="21" fill="#FBFAE8"/>
<rect x="908" y="242" width="21" height="39" fill="#FBFAE8"/>
<rect x="920" y="227" width="37" height="21" fill="#FBFAE8"/>
<rect x="950" y="214" width="49" height="18" fill="#FBFAE8"/>
<rect x="992" y="200" width="106" height="19" fill="#FBFAE8"/>
<rect x="1092" y="214" width="117" height="18" fill="#FBFAE8"/>
<rect x="1205" y="228" width="47" height="21" fill="#FBFAE8"/>
<rect x="1247" y="243" width="60" height="20" fill="#FBFAE8"/>
<rect x="892" y="285" width="51" height="19" fill="#FBFAE8"/>
<rect x="892" y="304" width="23" height="43" fill="#FBFAE8"/>
<rect x="908" y="341" width="21" height="48" fill="#FBFAE8"/>
<rect x="921" y="384" width="22" height="34" fill="#FBFAE8"/>
<rect x="936" y="412" width="20" height="22" fill="#FBFAE8"/>
<rect x="950" y="423" width="21" height="40" fill="#FBFAE8"/>
<rect x="965" y="455" width="21" height="30" fill="#FBFAE8"/>
<rect x="978" y="480" width="22" height="25" fill="#FBFAE8"/>
<rect x="936" y="299" width="50" height="20" fill="#FBFAE8"/>
<rect x="978" y="313" width="35" height="21" fill="#FBFAE8"/>
<rect x="1006" y="326" width="21" height="23" fill="#FBFAE8"/>
<rect x="1019" y="342" width="36" height="21" fill="#FBFAE8"/>
<rect x="1046" y="355" width="38" height="23" fill="#FBFAE8"/>
<rect x="1074" y="370" width="38" height="22" fill="#FBFAE8"/>
<rect x="1103" y="383" width="38" height="24" fill="#FBFAE8"/>
<rect x="1131" y="395" width="37" height="26" fill="#FBFAE8"/>
<rect x="1159" y="417" width="24" height="19" fill="#FBFAE8"/>
<rect x="1171" y="428" width="39" height="22" fill="#FBFAE8"/>
<rect x="1200" y="439" width="25" height="24" fill="#FBFAE8"/>
<rect x="1216" y="454" width="37" height="24" fill="#FBFAE8"/>
<rect x="1244" y="469" width="24" height="21" fill="#FBFAE8"/>
<rect x="1256" y="482" width="40" height="24" fill="#FBFAE8"/>
<rect x="1285" y="496" width="25" height="25" fill="#FBFAE8"/>
<rect x="1299" y="510" width="30" height="24" fill="#FBFAE8"/>
<rect x="1327" y="522" width="20" height="25" fill="#FBFAE8"/>
<rect x="1343" y="539" width="25" height="22" fill="#FBFAE8"/>
<rect x="1368" y="553" width="17" height="24" fill="#FBFAE8"/>
<rect x="1385" y="568" width="20" height="37" fill="#FBFAE8"/>
<rect x="1398" y="594" width="24" height="23" fill="#FBFAE8"/>
<rect x="1414" y="610" width="22" height="21" fill="#FBFAE8"/>
<rect x="1425" y="624" width="25" height="22" fill="#FBFAE8"/>
<rect x="1442" y="641" width="19" height="19" fill="#FBFAE8"/>
<rect x="1455" y="654" width="22" height="34" fill="#FBFAE8"/>
<rect x="1470" y="681" width="23" height="36" fill="#FBFAE8"/>
<rect x="1483" y="707" width="24" height="37" fill="#FBFAE8"/>
<rect x="1497" y="736" width="23" height="24" fill="#FBFAE8"/>
<rect x="1511" y="755" width="20" height="73" fill="#FBFAE8"/>
<rect x="1497" y="819" width="24" height="36" fill="#FBFAE8"/>
<rect x="1483" y="833" width="26" height="32" fill="#FBFAE8"/>
<rect x="1439" y="849" width="62" height="21" fill="#FBFAE8"/>
<rect x="1401" y="833" width="41" height="24" fill="#FBFAE8"/>
<rect x="1373" y="819" width="36" height="22" fill="#FBFAE8"/>
<rect x="1344" y="805" width="37" height="20" fill="#FBFAE8"/>
<rect x="1314" y="777" width="25" height="24" fill="#FBFAE8"/>
<rect x="1328" y="789" width="26" height="26" fill="#FBFAE8"/>
<rect x="1287" y="763" width="37" height="24" fill="#FBFAE8"/>
<rect x="1273" y="749" width="24" height="24" fill="#FBFAE8"/>
<rect x="1260" y="735" width="23" height="24" fill="#FBFAE8"/>
<rect x="1233" y="721" width="36" height="24" fill="#FBFAE8"/>
<rect x="1217" y="708" width="21" height="23" fill="#FBFAE8"/>
<rect x="1202" y="693" width="23" height="24" fill="#FBFAE8"/>
<rect x="1187" y="680" width="24" height="23" fill="#FBFAE8"/>
<rect x="1173" y="664" width="24" height="24" fill="#FBFAE8"/>
<rect x="1146" y="651" width="37" height="23" fill="#FBFAE8"/>
<rect x="1131" y="636" width="24" height="23" fill="#FBFAE8"/>
<rect x="1118" y="622" width="23" height="23" fill="#FBFAE8"/>
<rect x="1104" y="609" width="23" height="23" fill="#FBFAE8"/>
<rect x="1089" y="596" width="26" height="22" fill="#FBFAE8"/>
<rect x="1075" y="580" width="23" height="23" fill="#FBFAE8"/>
<rect x="1062" y="567" width="21" height="22" fill="#FBFAE8"/>
<rect x="1032" y="551" width="40" height="25" fill="#FBFAE8"/>
<rect x="1020" y="538" width="23" height="23" fill="#FBFAE8"/>
<rect x="1005" y="509" width="24" height="38" fill="#FBFAE8"/>
<rect x="991" y="495" width="23" height="23" fill="#FBFAE8"/>
<rect x="1303" y="271" width="62" height="21" fill="#FBFAE8"/>
<rect x="1334" y="243" width="19" height="38" fill="#FBFAE8"/>
<rect x="1303" y="255" width="40" height="26" fill="#FBFAE8"/>
<rect x="1329" y="239" width="53" height="10" fill="#FBFAE8"/>
<rect x="1343" y="228" width="81" height="13" fill="#FBFAE8"/>
<rect x="1371" y="213" width="128" height="18" fill="#FBFAE8"/>
<rect x="1442" y="197" width="66" height="25" fill="#FBFAE8"/>
<rect x="1499" y="213" width="93" height="26" fill="#FBFAE8"/>
<rect x="1585" y="228" width="49" height="24" fill="#FBFAE8"/>
<rect x="1626" y="241" width="49" height="24" fill="#FBFAE8"/>
<rect x="1667" y="253" width="38" height="26" fill="#FBFAE8"/>
<rect x="1696" y="266" width="22" height="28" fill="#FBFAE8"/>
<rect x="1365" y="281" width="57" height="26" fill="#FBFAE8"/>
<rect x="1414" y="294" width="37" height="25" fill="#FBFAE8"/>
<rect x="1442" y="307" width="39" height="29" fill="#FBFAE8"/>
<rect x="1470" y="326" width="37" height="21" fill="#FBFAE8"/>
<rect x="1496" y="336" width="23" height="28" fill="#FBFAE8"/>
<rect x="1516" y="353" width="32" height="24" fill="#FBFAE8"/>
<rect x="1543" y="367" width="33" height="27" fill="#FBFAE8"/>
<rect x="1570" y="383" width="22" height="23" fill="#FBFAE8"/>
<rect x="1583" y="398" width="37" height="21" fill="#FBFAE8"/>
<rect x="1611" y="411" width="25" height="22" fill="#FBFAE8"/>
<rect x="1623" y="425" width="27" height="23" fill="#FBFAE8"/>
<rect x="1639" y="439" width="38" height="20" fill="#FBFAE8"/>
<rect x="1667" y="453" width="24" height="38" fill="#FBFAE8"/>
<rect x="1679" y="481" width="28" height="66" fill="#FBFAE8"/>
<rect x="1667" y="523" width="14" height="27" fill="#FBFAE8"/>
<rect x="1611" y="536" width="70" height="26" fill="#FBFAE8"/>
<rect x="1555" y="523" width="65" height="24" fill="#FBFAE8"/>
<rect x="1513" y="510" width="51" height="22" fill="#FBFAE8"/>
<rect x="1473" y="497" width="48" height="21" fill="#FBFAE8"/>
<rect x="1458" y="483" width="21" height="22" fill="#FBFAE8"/>
<rect x="1442" y="469" width="23" height="22" fill="#FBFAE8"/>
<rect x="1429" y="454" width="22" height="23" fill="#FBFAE8"/>
<rect x="1385" y="441" width="50" height="22" fill="#FBFAE8"/>
<rect x="1372" y="427" width="21" height="20" fill="#FBFAE8"/>
<rect x="1359" y="398" width="20" height="36" fill="#FBFAE8"/>
<rect x="1343" y="383" width="22" height="22" fill="#FBFAE8"/>
<rect x="1314" y="369" width="39" height="22" fill="#FBFAE8"/>
<rect x="1303" y="351" width="36" height="18" fill="#FBFAE8"/>
<rect x="1286" y="281" width="39" height="40" fill="#FBFAE8"/>
<rect x="1300" y="319" width="25" height="46" fill="#FBFAE8"/>
</svg>
