<svg width="1210" height="677" viewBox="0 0 1210 677" fill="none" xmlns="http://www.w3.org/2000/svg">
<rect y="226.991" width="85.8136" height="60.9" fill="#74BF6F"/>
<rect x="27.6816" y="200.693" width="81.6614" height="56.7477" fill="#74BF6F"/>
<rect x="85.8125" y="174.396" width="56.7477" height="53.9795" fill="#74BF6F"/>
<rect x="113.496" y="145.33" width="146.714" height="55.3636" fill="#74BF6F"/>
<rect x="142.562" y="113.495" width="145.33" height="59.5159" fill="#74BF6F"/>
<rect x="173.012" y="84.4292" width="114.88" height="37.3705" fill="#74BF6F"/>
<rect x="202.076" y="55.3638" width="116.264" height="58.1318" fill="#74BF6F"/>
<rect x="260.209" y="23.5298" width="58.1318" height="41.5227" fill="#74BF6F"/>
<rect x="173.012" y="191.004" width="87.1977" height="37.3705" fill="#74BF6F"/>
<rect x="142.562" y="228.375" width="87.1977" height="29.0659" fill="#74BF6F"/>
<rect x="142.562" y="287.891" width="87.1977" height="87.1977" fill="#74BF6F"/>
<rect x="142.562" y="257.44" width="59.5159" height="34.6023" fill="#74BF6F"/>
<rect x="229.76" y="257.44" width="59.5159" height="89.9659" fill="#74BF6F"/>
<rect x="287.893" y="228.375" width="58.1318" height="87.1977" fill="#74BF6F"/>
<rect x="318.34" y="200.693" width="56.7477" height="87.1977" fill="#74BF6F"/>
<rect x="375.088" y="173.011" width="120.416" height="84.4295" fill="#74BF6F"/>
<rect x="406.924" y="253.289" width="88.5818" height="34.6023" fill="#74BF6F"/>
<rect x="377.857" y="287.891" width="88.5818" height="59.5159" fill="#74BF6F"/>
<rect x="346.023" y="344.639" width="88.5818" height="30.45" fill="#74BF6F"/>
<rect x="318.34" y="375.089" width="88.5818" height="59.5159" fill="#74BF6F"/>
<rect x="289.275" y="434.604" width="88.5818" height="29.0659" fill="#74BF6F"/>
<rect x="289.275" y="463.67" width="56.7477" height="56.7477" fill="#74BF6F"/>
<rect x="260.209" y="491.353" width="56.7477" height="88.5818" fill="#74BF6F"/>
<rect x="229.76" y="552.252" width="58.1318" height="56.7477" fill="#74BF6F"/>
<rect x="318.34" y="579.934" width="114.88" height="29.0659" fill="#74BF6F"/>
<rect x="377.857" y="552.252" width="87.1977" height="27.6818" fill="#74BF6F"/>
<rect x="406.924" y="520.418" width="88.5818" height="31.8341" fill="#74BF6F"/>
<rect x="434.605" y="494.121" width="120.416" height="29.0659" fill="#74BF6F"/>
<rect x="466.439" y="463.67" width="116.264" height="30.45" fill="#74BF6F"/>
<rect x="524.57" y="434.604" width="88.5818" height="29.0659" fill="#74BF6F"/>
<rect x="555.02" y="404.155" width="85.8136" height="33.2182" fill="#74BF6F"/>
<rect x="582.703" y="375.089" width="117.648" height="31.8341" fill="#74BF6F"/>
<rect x="613.152" y="347.407" width="116.264" height="27.6818" fill="#74BF6F"/>
<rect x="671.283" y="316.957" width="85.8136" height="30.45" fill="#74BF6F"/>
<rect x="729.416" y="257.44" width="87.1977" height="59.5159" fill="#74BF6F"/>
<rect x="700.35" y="287.891" width="29.0659" height="29.0659" fill="#74BF6F"/>
<rect x="790.316" y="231.143" width="55.3636" height="56.7477" fill="#74BF6F"/>
<rect x="817.998" y="202.077" width="58.1318" height="55.3636" fill="#74BF6F"/>
<rect x="847.064" y="173.011" width="87.1977" height="56.7477" fill="#74BF6F"/>
<rect x="909.348" y="142.562" width="55.3636" height="58.1318" fill="#74BF6F"/>
<rect x="937.029" y="114.879" width="55.3636" height="58.1318" fill="#74BF6F"/>
<rect x="964.711" y="85.814" width="85.8136" height="56.7477" fill="#74BF6F"/>
<rect x="1026.99" y="56.748" width="83.0454" height="53.9795" fill="#74BF6F"/>
<rect x="1085.13" y="29.0659" width="124.568" height="53.9795" fill="#74BF6F"/>
<rect x="1110.04" width="99.6545" height="38.7545" fill="#74BF6F"/>
<rect x="1141.88" y="77.5093" width="56.7477" height="94.1182" fill="#74BF6F"/>
<rect x="1110.04" y="143.945" width="59.5159" height="56.7477" fill="#74BF6F"/>
<rect x="1085.13" y="173.011" width="53.9795" height="84.4295" fill="#74BF6F"/>
<rect x="1056.06" y="231.143" width="53.9795" height="113.495" fill="#74BF6F"/>
<rect x="1026.99" y="321.109" width="55.3636" height="81.6614" fill="#74BF6F"/>
<rect x="996.545" y="380.625" width="53.9795" height="52.5955" fill="#74BF6F"/>
<rect x="967.48" y="406.923" width="52.5955" height="84.4295" fill="#74BF6F"/>
<rect x="937.029" y="467.823" width="56.7477" height="110.727" fill="#74BF6F"/>
<rect x="907.965" y="555.021" width="53.9795" height="53.9795" fill="#74BF6F"/>
<rect x="878.898" y="581.318" width="29.0659" height="27.6818" fill="#74BF6F"/>
<rect x="242" y="594" width="47" height="57" fill="#74BF6F"/>
<rect x="265" y="622" width="134" height="55" fill="#74BF6F"/>
<rect x="318" y="594" width="81" height="55" fill="#74BF6F"/>
</svg>
